<mxfile host="app.diagrams.net" modified="2024-03-13T15:06:51.407Z" agent="Mozilla/5.0 (Windows NT 10.0; Win64; x64) AppleWebKit/537.36 (KHTML, like Gecko) Chrome/122.0.0.0 Safari/537.36 Edg/122.0.0.0" etag="2TOKF6X3ynVC4mKjzEuH" version="24.0.5" type="github">
  <diagram name="Page-1" id="OeYdtLv1IjnOyBU3Amu2">
    <mxGraphModel dx="1555" dy="891" grid="0" gridSize="10" guides="1" tooltips="1" connect="1" arrows="1" fold="1" page="1" pageScale="1" pageWidth="827" pageHeight="1169" background="none" math="0" shadow="0">
      <root>
        <mxCell id="0" />
        <mxCell id="1" parent="0" />
        <mxCell id="IRkksiMZ1BELoxPSW7Ua-1" style="edgeStyle=orthogonalEdgeStyle;rounded=0;orthogonalLoop=1;jettySize=auto;html=1;exitX=0.5;exitY=1;exitDx=0;exitDy=0;" edge="1" parent="1" source="pRWNdX91k6wPPOygnffL-7" target="pRWNdX91k6wPPOygnffL-8">
          <mxGeometry relative="1" as="geometry" />
        </mxCell>
        <mxCell id="IRkksiMZ1BELoxPSW7Ua-7" style="edgeStyle=orthogonalEdgeStyle;rounded=0;orthogonalLoop=1;jettySize=auto;html=1;exitX=0;exitY=0.5;exitDx=0;exitDy=0;entryX=0.5;entryY=0;entryDx=0;entryDy=0;" edge="1" parent="1" source="pRWNdX91k6wPPOygnffL-7" target="pRWNdX91k6wPPOygnffL-10">
          <mxGeometry relative="1" as="geometry" />
        </mxCell>
        <mxCell id="IRkksiMZ1BELoxPSW7Ua-25" style="edgeStyle=orthogonalEdgeStyle;rounded=0;orthogonalLoop=1;jettySize=auto;html=1;exitX=0;exitY=1;exitDx=0;exitDy=0;" edge="1" parent="1" source="pRWNdX91k6wPPOygnffL-7" target="pRWNdX91k6wPPOygnffL-9">
          <mxGeometry relative="1" as="geometry" />
        </mxCell>
        <mxCell id="pRWNdX91k6wPPOygnffL-7" value="" style="ellipse;whiteSpace=wrap;html=1;aspect=fixed;" parent="1" vertex="1">
          <mxGeometry x="720" y="160" width="40" height="40" as="geometry" />
        </mxCell>
        <mxCell id="IRkksiMZ1BELoxPSW7Ua-42" style="edgeStyle=orthogonalEdgeStyle;rounded=0;orthogonalLoop=1;jettySize=auto;html=1;exitX=0.5;exitY=1;exitDx=0;exitDy=0;entryX=0.5;entryY=0;entryDx=0;entryDy=0;" edge="1" parent="1" source="pRWNdX91k6wPPOygnffL-8" target="IRkksiMZ1BELoxPSW7Ua-40">
          <mxGeometry relative="1" as="geometry" />
        </mxCell>
        <mxCell id="pRWNdX91k6wPPOygnffL-8" value="" style="ellipse;whiteSpace=wrap;html=1;aspect=fixed;" parent="1" vertex="1">
          <mxGeometry x="720" y="560" width="40" height="40" as="geometry" />
        </mxCell>
        <mxCell id="IRkksiMZ1BELoxPSW7Ua-32" style="edgeStyle=orthogonalEdgeStyle;rounded=0;orthogonalLoop=1;jettySize=auto;html=1;exitX=1;exitY=0.5;exitDx=0;exitDy=0;entryX=0;entryY=0.5;entryDx=0;entryDy=0;" edge="1" parent="1" source="pRWNdX91k6wPPOygnffL-9" target="pRWNdX91k6wPPOygnffL-8">
          <mxGeometry relative="1" as="geometry" />
        </mxCell>
        <mxCell id="IRkksiMZ1BELoxPSW7Ua-33" style="edgeStyle=orthogonalEdgeStyle;rounded=0;orthogonalLoop=1;jettySize=auto;html=1;exitX=0;exitY=0.5;exitDx=0;exitDy=0;entryX=1;entryY=0.5;entryDx=0;entryDy=0;" edge="1" parent="1" source="pRWNdX91k6wPPOygnffL-9" target="IRkksiMZ1BELoxPSW7Ua-29">
          <mxGeometry relative="1" as="geometry">
            <Array as="points">
              <mxPoint x="560" y="420" />
              <mxPoint x="560" y="620" />
            </Array>
          </mxGeometry>
        </mxCell>
        <mxCell id="pRWNdX91k6wPPOygnffL-9" value="" style="ellipse;whiteSpace=wrap;html=1;aspect=fixed;" parent="1" vertex="1">
          <mxGeometry x="600" y="400" width="40" height="40" as="geometry" />
        </mxCell>
        <mxCell id="IRkksiMZ1BELoxPSW7Ua-5" style="edgeStyle=orthogonalEdgeStyle;rounded=0;orthogonalLoop=1;jettySize=auto;html=1;exitX=0.5;exitY=1;exitDx=0;exitDy=0;entryX=0.5;entryY=0;entryDx=0;entryDy=0;" edge="1" parent="1" source="IRkksiMZ1BELoxPSW7Ua-13" target="pRWNdX91k6wPPOygnffL-11">
          <mxGeometry relative="1" as="geometry" />
        </mxCell>
        <mxCell id="IRkksiMZ1BELoxPSW7Ua-6" style="edgeStyle=orthogonalEdgeStyle;rounded=0;orthogonalLoop=1;jettySize=auto;html=1;exitX=0;exitY=0.5;exitDx=0;exitDy=0;entryX=0.5;entryY=0;entryDx=0;entryDy=0;" edge="1" parent="1" source="pRWNdX91k6wPPOygnffL-10" target="pRWNdX91k6wPPOygnffL-14">
          <mxGeometry relative="1" as="geometry" />
        </mxCell>
        <mxCell id="IRkksiMZ1BELoxPSW7Ua-28" style="edgeStyle=orthogonalEdgeStyle;rounded=0;orthogonalLoop=1;jettySize=auto;html=1;exitX=0.5;exitY=1;exitDx=0;exitDy=0;" edge="1" parent="1" source="pRWNdX91k6wPPOygnffL-10" target="IRkksiMZ1BELoxPSW7Ua-26">
          <mxGeometry relative="1" as="geometry" />
        </mxCell>
        <mxCell id="pRWNdX91k6wPPOygnffL-10" value="" style="ellipse;whiteSpace=wrap;html=1;aspect=fixed;shadow=0;gradientColor=none;" parent="1" vertex="1">
          <mxGeometry x="320" y="240" width="40" height="40" as="geometry" />
        </mxCell>
        <mxCell id="IRkksiMZ1BELoxPSW7Ua-27" style="edgeStyle=orthogonalEdgeStyle;rounded=0;orthogonalLoop=1;jettySize=auto;html=1;exitX=0.5;exitY=1;exitDx=0;exitDy=0;entryX=0;entryY=0.5;entryDx=0;entryDy=0;" edge="1" parent="1" source="pRWNdX91k6wPPOygnffL-11" target="IRkksiMZ1BELoxPSW7Ua-26">
          <mxGeometry relative="1" as="geometry" />
        </mxCell>
        <mxCell id="pRWNdX91k6wPPOygnffL-11" value="" style="ellipse;whiteSpace=wrap;html=1;aspect=fixed;" parent="1" vertex="1">
          <mxGeometry x="200" y="480" width="40" height="40" as="geometry" />
        </mxCell>
        <mxCell id="IRkksiMZ1BELoxPSW7Ua-17" style="edgeStyle=orthogonalEdgeStyle;rounded=0;orthogonalLoop=1;jettySize=auto;html=1;exitX=0.5;exitY=1;exitDx=0;exitDy=0;entryX=0.5;entryY=0;entryDx=0;entryDy=0;" edge="1" parent="1" source="pRWNdX91k6wPPOygnffL-14" target="IRkksiMZ1BELoxPSW7Ua-14">
          <mxGeometry relative="1" as="geometry" />
        </mxCell>
        <mxCell id="pRWNdX91k6wPPOygnffL-14" value="" style="ellipse;whiteSpace=wrap;html=1;aspect=fixed;" parent="1" vertex="1">
          <mxGeometry x="80" y="360" width="40" height="40" as="geometry" />
        </mxCell>
        <mxCell id="pRWNdX91k6wPPOygnffL-16" value="&lt;font style=&quot;font-size: 24px;&quot;&gt;develop&lt;/font&gt;" style="text;html=1;align=center;verticalAlign=middle;resizable=0;points=[];autosize=1;strokeColor=none;fillColor=none;" parent="1" vertex="1">
          <mxGeometry x="285" y="40" width="110" height="40" as="geometry" />
        </mxCell>
        <mxCell id="pRWNdX91k6wPPOygnffL-18" value="&lt;font style=&quot;font-size: 24px;&quot;&gt;master&lt;/font&gt;" style="text;html=1;align=center;verticalAlign=middle;resizable=0;points=[];autosize=1;strokeColor=none;fillColor=none;" parent="1" vertex="1">
          <mxGeometry x="690" y="40" width="100" height="40" as="geometry" />
        </mxCell>
        <mxCell id="pRWNdX91k6wPPOygnffL-19" value="&lt;font style=&quot;font-size: 24px;&quot;&gt;hotfixes&lt;/font&gt;" style="text;html=1;align=center;verticalAlign=middle;resizable=0;points=[];autosize=1;strokeColor=none;fillColor=none;" parent="1" vertex="1">
          <mxGeometry x="565" y="40" width="110" height="40" as="geometry" />
        </mxCell>
        <mxCell id="pRWNdX91k6wPPOygnffL-20" value="&lt;font style=&quot;font-size: 24px;&quot;&gt;release&lt;/font&gt;&lt;div&gt;&lt;font style=&quot;font-size: 24px;&quot;&gt;branches&lt;/font&gt;&lt;/div&gt;" style="text;html=1;align=center;verticalAlign=middle;resizable=0;points=[];autosize=1;strokeColor=none;fillColor=none;" parent="1" vertex="1">
          <mxGeometry x="420" y="25" width="120" height="70" as="geometry" />
        </mxCell>
        <mxCell id="pRWNdX91k6wPPOygnffL-21" value="&lt;font style=&quot;font-size: 24px;&quot;&gt;feature&lt;/font&gt;&lt;div&gt;&lt;font style=&quot;font-size: 24px;&quot;&gt;branches&lt;/font&gt;&lt;/div&gt;" style="text;html=1;align=center;verticalAlign=middle;resizable=0;points=[];autosize=1;strokeColor=none;fillColor=none;" parent="1" vertex="1">
          <mxGeometry x="100" y="25" width="120" height="70" as="geometry" />
        </mxCell>
        <mxCell id="IRkksiMZ1BELoxPSW7Ua-23" style="edgeStyle=orthogonalEdgeStyle;rounded=0;orthogonalLoop=1;jettySize=auto;html=1;exitX=0.5;exitY=1;exitDx=0;exitDy=0;entryX=0.5;entryY=0;entryDx=0;entryDy=0;" edge="1" parent="1" source="IRkksiMZ1BELoxPSW7Ua-14" target="IRkksiMZ1BELoxPSW7Ua-22">
          <mxGeometry relative="1" as="geometry" />
        </mxCell>
        <mxCell id="IRkksiMZ1BELoxPSW7Ua-14" value="" style="ellipse;whiteSpace=wrap;html=1;aspect=fixed;" vertex="1" parent="1">
          <mxGeometry x="80" y="440" width="40" height="40" as="geometry" />
        </mxCell>
        <mxCell id="IRkksiMZ1BELoxPSW7Ua-16" value="" style="edgeStyle=orthogonalEdgeStyle;rounded=0;orthogonalLoop=1;jettySize=auto;html=1;exitX=0;exitY=1;exitDx=0;exitDy=0;entryX=0.5;entryY=0;entryDx=0;entryDy=0;" edge="1" parent="1" source="pRWNdX91k6wPPOygnffL-10" target="IRkksiMZ1BELoxPSW7Ua-13">
          <mxGeometry relative="1" as="geometry">
            <mxPoint x="326" y="274" as="sourcePoint" />
            <mxPoint x="220" y="480" as="targetPoint" />
          </mxGeometry>
        </mxCell>
        <mxCell id="IRkksiMZ1BELoxPSW7Ua-13" value="" style="ellipse;whiteSpace=wrap;html=1;aspect=fixed;" vertex="1" parent="1">
          <mxGeometry x="200" y="320" width="40" height="40" as="geometry" />
        </mxCell>
        <mxCell id="IRkksiMZ1BELoxPSW7Ua-36" style="edgeStyle=orthogonalEdgeStyle;rounded=0;orthogonalLoop=1;jettySize=auto;html=1;exitX=0.5;exitY=1;exitDx=0;exitDy=0;entryX=0;entryY=0.5;entryDx=0;entryDy=0;" edge="1" parent="1" source="IRkksiMZ1BELoxPSW7Ua-22" target="IRkksiMZ1BELoxPSW7Ua-35">
          <mxGeometry relative="1" as="geometry" />
        </mxCell>
        <mxCell id="IRkksiMZ1BELoxPSW7Ua-22" value="" style="ellipse;whiteSpace=wrap;html=1;aspect=fixed;" vertex="1" parent="1">
          <mxGeometry x="80" y="640" width="40" height="40" as="geometry" />
        </mxCell>
        <mxCell id="IRkksiMZ1BELoxPSW7Ua-34" style="edgeStyle=orthogonalEdgeStyle;rounded=0;orthogonalLoop=1;jettySize=auto;html=1;exitX=0.5;exitY=1;exitDx=0;exitDy=0;entryX=0.5;entryY=0;entryDx=0;entryDy=0;" edge="1" parent="1" source="IRkksiMZ1BELoxPSW7Ua-26" target="IRkksiMZ1BELoxPSW7Ua-29">
          <mxGeometry relative="1" as="geometry" />
        </mxCell>
        <mxCell id="IRkksiMZ1BELoxPSW7Ua-26" value="" style="ellipse;whiteSpace=wrap;html=1;aspect=fixed;" vertex="1" parent="1">
          <mxGeometry x="320" y="520" width="40" height="40" as="geometry" />
        </mxCell>
        <mxCell id="IRkksiMZ1BELoxPSW7Ua-37" style="edgeStyle=orthogonalEdgeStyle;rounded=0;orthogonalLoop=1;jettySize=auto;html=1;exitX=0.5;exitY=1;exitDx=0;exitDy=0;entryX=0.5;entryY=0;entryDx=0;entryDy=0;" edge="1" parent="1" source="IRkksiMZ1BELoxPSW7Ua-29" target="IRkksiMZ1BELoxPSW7Ua-35">
          <mxGeometry relative="1" as="geometry" />
        </mxCell>
        <mxCell id="IRkksiMZ1BELoxPSW7Ua-29" value="" style="ellipse;whiteSpace=wrap;html=1;aspect=fixed;" vertex="1" parent="1">
          <mxGeometry x="320" y="600" width="40" height="40" as="geometry" />
        </mxCell>
        <mxCell id="IRkksiMZ1BELoxPSW7Ua-39" style="edgeStyle=orthogonalEdgeStyle;rounded=0;orthogonalLoop=1;jettySize=auto;html=1;exitX=0.5;exitY=1;exitDx=0;exitDy=0;entryX=0;entryY=0.5;entryDx=0;entryDy=0;" edge="1" parent="1" source="IRkksiMZ1BELoxPSW7Ua-35" target="IRkksiMZ1BELoxPSW7Ua-38">
          <mxGeometry relative="1" as="geometry" />
        </mxCell>
        <mxCell id="IRkksiMZ1BELoxPSW7Ua-35" value="" style="ellipse;whiteSpace=wrap;html=1;aspect=fixed;" vertex="1" parent="1">
          <mxGeometry x="320" y="680" width="40" height="40" as="geometry" />
        </mxCell>
        <mxCell id="IRkksiMZ1BELoxPSW7Ua-45" style="edgeStyle=orthogonalEdgeStyle;rounded=0;orthogonalLoop=1;jettySize=auto;html=1;exitX=0.5;exitY=1;exitDx=0;exitDy=0;" edge="1" parent="1" source="IRkksiMZ1BELoxPSW7Ua-38" target="IRkksiMZ1BELoxPSW7Ua-43">
          <mxGeometry relative="1" as="geometry" />
        </mxCell>
        <mxCell id="IRkksiMZ1BELoxPSW7Ua-38" value="" style="ellipse;whiteSpace=wrap;html=1;aspect=fixed;" vertex="1" parent="1">
          <mxGeometry x="460" y="720" width="40" height="40" as="geometry" />
        </mxCell>
        <mxCell id="IRkksiMZ1BELoxPSW7Ua-40" value="" style="ellipse;whiteSpace=wrap;html=1;aspect=fixed;" vertex="1" parent="1">
          <mxGeometry x="720" y="960" width="40" height="40" as="geometry" />
        </mxCell>
        <mxCell id="IRkksiMZ1BELoxPSW7Ua-46" style="edgeStyle=orthogonalEdgeStyle;rounded=0;orthogonalLoop=1;jettySize=auto;html=1;exitX=0.5;exitY=1;exitDx=0;exitDy=0;entryX=0;entryY=0.5;entryDx=0;entryDy=0;" edge="1" parent="1" source="IRkksiMZ1BELoxPSW7Ua-43" target="IRkksiMZ1BELoxPSW7Ua-40">
          <mxGeometry relative="1" as="geometry" />
        </mxCell>
        <mxCell id="IRkksiMZ1BELoxPSW7Ua-43" value="" style="ellipse;whiteSpace=wrap;html=1;aspect=fixed;" vertex="1" parent="1">
          <mxGeometry x="460" y="800" width="40" height="40" as="geometry" />
        </mxCell>
      </root>
    </mxGraphModel>
  </diagram>
</mxfile>
